<mxfile host="app.diagrams.net" modified="2023-12-14T10:36:29.791Z" agent="Mozilla/5.0 (Windows NT 10.0; Win64; x64) AppleWebKit/537.36 (KHTML, like Gecko) Chrome/120.0.0.0 Safari/537.36 Edg/120.0.0.0" etag="mvMDiy3ifQW7spquU6yl" version="22.1.8" type="device" pages="2">
  <diagram name="Página-1" id="HaBkkyvpzeala10yc2f0">
    <mxGraphModel dx="1386" dy="1954" grid="1" gridSize="10" guides="1" tooltips="1" connect="1" arrows="1" fold="1" page="1" pageScale="1" pageWidth="827" pageHeight="1169" math="0" shadow="0">
      <root>
        <mxCell id="0" />
        <mxCell id="1" parent="0" />
        <mxCell id="GBdT3qQerjElVw0EhxT5-1" value="Actor" style="shape=umlActor;verticalLabelPosition=bottom;verticalAlign=top;html=1;outlineConnect=0;" parent="1" vertex="1">
          <mxGeometry x="130" y="220" width="40" height="80" as="geometry" />
        </mxCell>
        <mxCell id="GBdT3qQerjElVw0EhxT5-3" value="Login" style="ellipse;whiteSpace=wrap;html=1;" parent="1" vertex="1">
          <mxGeometry x="360" y="90" width="140" height="70" as="geometry" />
        </mxCell>
        <mxCell id="GBdT3qQerjElVw0EhxT5-4" value="Registo" style="ellipse;whiteSpace=wrap;html=1;" parent="1" vertex="1">
          <mxGeometry x="360" y="325" width="140" height="70" as="geometry" />
        </mxCell>
        <mxCell id="GBdT3qQerjElVw0EhxT5-6" value="Includes" style="endArrow=open;endSize=12;dashed=1;html=1;rounded=0;edgeStyle=orthogonalEdgeStyle;exitX=0.5;exitY=0;exitDx=0;exitDy=0;entryX=0.5;entryY=1;entryDx=0;entryDy=0;" parent="1" source="GBdT3qQerjElVw0EhxT5-4" target="GBdT3qQerjElVw0EhxT5-3" edge="1">
          <mxGeometry width="160" relative="1" as="geometry">
            <mxPoint x="390" y="550" as="sourcePoint" />
            <mxPoint x="230" y="550" as="targetPoint" />
          </mxGeometry>
        </mxCell>
        <mxCell id="GBdT3qQerjElVw0EhxT5-15" value="" style="endArrow=none;html=1;rounded=0;entryX=0;entryY=0.5;entryDx=0;entryDy=0;" parent="1" target="GBdT3qQerjElVw0EhxT5-3" edge="1">
          <mxGeometry relative="1" as="geometry">
            <mxPoint x="190" y="260" as="sourcePoint" />
            <mxPoint x="490" y="300" as="targetPoint" />
          </mxGeometry>
        </mxCell>
        <mxCell id="GBdT3qQerjElVw0EhxT5-16" value="" style="endArrow=none;html=1;rounded=0;entryX=0;entryY=0.5;entryDx=0;entryDy=0;" parent="1" target="GBdT3qQerjElVw0EhxT5-4" edge="1">
          <mxGeometry relative="1" as="geometry">
            <mxPoint x="190" y="260" as="sourcePoint" />
            <mxPoint x="370" y="135" as="targetPoint" />
          </mxGeometry>
        </mxCell>
        <mxCell id="GBdT3qQerjElVw0EhxT5-17" value="Definir Email" style="ellipse;whiteSpace=wrap;html=1;" parent="1" vertex="1">
          <mxGeometry x="240" y="440" width="140" height="70" as="geometry" />
        </mxCell>
        <mxCell id="GBdT3qQerjElVw0EhxT5-19" value="Definir Password" style="ellipse;whiteSpace=wrap;html=1;" parent="1" vertex="1">
          <mxGeometry x="570" y="440" width="140" height="70" as="geometry" />
        </mxCell>
        <mxCell id="GBdT3qQerjElVw0EhxT5-20" value="Confirmar Email" style="ellipse;whiteSpace=wrap;html=1;" parent="1" vertex="1">
          <mxGeometry x="400" y="440" width="140" height="70" as="geometry" />
        </mxCell>
        <mxCell id="GBdT3qQerjElVw0EhxT5-21" value="Includes" style="endArrow=open;endSize=12;dashed=1;html=1;rounded=0;exitX=0.157;exitY=0.957;exitDx=0;exitDy=0;entryX=0.5;entryY=0;entryDx=0;entryDy=0;exitPerimeter=0;" parent="1" source="GBdT3qQerjElVw0EhxT5-4" target="GBdT3qQerjElVw0EhxT5-17" edge="1">
          <mxGeometry width="160" relative="1" as="geometry">
            <mxPoint x="440" y="335" as="sourcePoint" />
            <mxPoint x="440" y="170" as="targetPoint" />
          </mxGeometry>
        </mxCell>
        <mxCell id="GBdT3qQerjElVw0EhxT5-22" value="Includes" style="endArrow=open;endSize=12;dashed=1;html=1;rounded=0;edgeStyle=orthogonalEdgeStyle;exitX=0.793;exitY=0.9;exitDx=0;exitDy=0;exitPerimeter=0;" parent="1" source="GBdT3qQerjElVw0EhxT5-4" target="GBdT3qQerjElVw0EhxT5-20" edge="1">
          <mxGeometry width="160" relative="1" as="geometry">
            <mxPoint x="440" y="405" as="sourcePoint" />
            <mxPoint x="300" y="450" as="targetPoint" />
          </mxGeometry>
        </mxCell>
        <mxCell id="GBdT3qQerjElVw0EhxT5-23" value="Includes" style="endArrow=open;endSize=12;dashed=1;html=1;rounded=0;exitX=1;exitY=0.5;exitDx=0;exitDy=0;" parent="1" source="GBdT3qQerjElVw0EhxT5-4" target="GBdT3qQerjElVw0EhxT5-19" edge="1">
          <mxGeometry width="160" relative="1" as="geometry">
            <mxPoint x="450" y="415" as="sourcePoint" />
            <mxPoint x="310" y="460" as="targetPoint" />
          </mxGeometry>
        </mxCell>
        <mxCell id="GBdT3qQerjElVw0EhxT5-24" value="Requisitos Password" style="ellipse;whiteSpace=wrap;html=1;" parent="1" vertex="1">
          <mxGeometry x="810" y="440" width="140" height="70" as="geometry" />
        </mxCell>
        <mxCell id="GBdT3qQerjElVw0EhxT5-25" value="Includes" style="endArrow=open;endSize=12;dashed=1;html=1;rounded=0;edgeStyle=orthogonalEdgeStyle;exitX=1;exitY=0.5;exitDx=0;exitDy=0;entryX=0;entryY=0.5;entryDx=0;entryDy=0;" parent="1" source="GBdT3qQerjElVw0EhxT5-19" target="GBdT3qQerjElVw0EhxT5-24" edge="1">
          <mxGeometry width="160" relative="1" as="geometry">
            <mxPoint x="510" y="370" as="sourcePoint" />
            <mxPoint x="650" y="450" as="targetPoint" />
          </mxGeometry>
        </mxCell>
        <mxCell id="GBdT3qQerjElVw0EhxT5-26" value="Registo Alternativo&lt;br&gt;(Facebook, Google, Apple)" style="ellipse;whiteSpace=wrap;html=1;" parent="1" vertex="1">
          <mxGeometry x="530" y="210" width="160" height="70" as="geometry" />
        </mxCell>
        <mxCell id="GBdT3qQerjElVw0EhxT5-27" value="Extends" style="endArrow=open;endSize=12;dashed=1;html=1;rounded=0;exitX=1;exitY=0;exitDx=0;exitDy=0;entryX=0.106;entryY=0.8;entryDx=0;entryDy=0;entryPerimeter=0;" parent="1" source="GBdT3qQerjElVw0EhxT5-4" target="GBdT3qQerjElVw0EhxT5-26" edge="1">
          <mxGeometry width="160" relative="1" as="geometry">
            <mxPoint x="510" y="370" as="sourcePoint" />
            <mxPoint x="650" y="450" as="targetPoint" />
          </mxGeometry>
        </mxCell>
        <mxCell id="GBdT3qQerjElVw0EhxT5-28" value="Aceitar Termos e Condições" style="ellipse;whiteSpace=wrap;html=1;" parent="1" vertex="1">
          <mxGeometry x="750" y="240" width="140" height="70" as="geometry" />
        </mxCell>
        <mxCell id="GBdT3qQerjElVw0EhxT5-29" value="Includes" style="endArrow=open;endSize=12;dashed=1;html=1;rounded=0;exitX=0;exitY=0;exitDx=0;exitDy=0;entryX=0.5;entryY=1;entryDx=0;entryDy=0;" parent="1" source="GBdT3qQerjElVw0EhxT5-3" target="GBdT3qQerjElVw0EhxT5-30" edge="1">
          <mxGeometry width="160" relative="1" as="geometry">
            <mxPoint x="510" y="71.98000000000002" as="sourcePoint" />
            <mxPoint x="667.98" y="70" as="targetPoint" />
          </mxGeometry>
        </mxCell>
        <mxCell id="GBdT3qQerjElVw0EhxT5-30" value="Inserir Email" style="ellipse;whiteSpace=wrap;html=1;" parent="1" vertex="1">
          <mxGeometry x="260" y="-50" width="140" height="70" as="geometry" />
        </mxCell>
        <mxCell id="GBdT3qQerjElVw0EhxT5-31" value="Inserir Password" style="ellipse;whiteSpace=wrap;html=1;" parent="1" vertex="1">
          <mxGeometry x="450" y="-50" width="140" height="70" as="geometry" />
        </mxCell>
        <mxCell id="GBdT3qQerjElVw0EhxT5-32" value="Includes" style="endArrow=open;endSize=12;dashed=1;html=1;rounded=0;exitX=1;exitY=0;exitDx=0;exitDy=0;entryX=0.5;entryY=1;entryDx=0;entryDy=0;" parent="1" source="GBdT3qQerjElVw0EhxT5-3" target="GBdT3qQerjElVw0EhxT5-31" edge="1">
          <mxGeometry width="160" relative="1" as="geometry">
            <mxPoint x="519.98" y="82" as="sourcePoint" />
            <mxPoint x="677.98" y="80" as="targetPoint" />
          </mxGeometry>
        </mxCell>
        <mxCell id="GBdT3qQerjElVw0EhxT5-33" value="Recuperar Password" style="ellipse;whiteSpace=wrap;html=1;" parent="1" vertex="1">
          <mxGeometry x="650" y="90" width="140" height="70" as="geometry" />
        </mxCell>
        <mxCell id="GBdT3qQerjElVw0EhxT5-34" value="Includes" style="endArrow=open;endSize=12;dashed=1;html=1;rounded=0;exitX=1;exitY=0.5;exitDx=0;exitDy=0;entryX=0;entryY=0.5;entryDx=0;entryDy=0;" parent="1" source="GBdT3qQerjElVw0EhxT5-4" target="GBdT3qQerjElVw0EhxT5-28" edge="1">
          <mxGeometry width="160" relative="1" as="geometry">
            <mxPoint x="510" y="370" as="sourcePoint" />
            <mxPoint x="614" y="455" as="targetPoint" />
          </mxGeometry>
        </mxCell>
        <mxCell id="GBdT3qQerjElVw0EhxT5-35" value="Extends" style="endArrow=open;endSize=12;dashed=1;html=1;rounded=0;exitX=1;exitY=0.5;exitDx=0;exitDy=0;entryX=0;entryY=0.5;entryDx=0;entryDy=0;" parent="1" source="GBdT3qQerjElVw0EhxT5-3" target="GBdT3qQerjElVw0EhxT5-33" edge="1">
          <mxGeometry width="160" relative="1" as="geometry">
            <mxPoint x="489" y="110" as="sourcePoint" />
            <mxPoint x="550" y="30" as="targetPoint" />
          </mxGeometry>
        </mxCell>
        <mxCell id="GBdT3qQerjElVw0EhxT5-36" value="Verificação reCAPTCHA" style="ellipse;whiteSpace=wrap;html=1;" parent="1" vertex="1">
          <mxGeometry x="750" y="325" width="140" height="70" as="geometry" />
        </mxCell>
        <mxCell id="GBdT3qQerjElVw0EhxT5-37" value="Includes" style="endArrow=open;endSize=12;dashed=1;html=1;rounded=0;entryX=0;entryY=0.5;entryDx=0;entryDy=0;" parent="1" target="GBdT3qQerjElVw0EhxT5-36" edge="1">
          <mxGeometry width="160" relative="1" as="geometry">
            <mxPoint x="500" y="360" as="sourcePoint" />
            <mxPoint x="760" y="285" as="targetPoint" />
          </mxGeometry>
        </mxCell>
        <mxCell id="GBdT3qQerjElVw0EhxT5-38" value="Manter Sessão Iniciada" style="ellipse;whiteSpace=wrap;html=1;" parent="1" vertex="1">
          <mxGeometry x="670" y="-30" width="140" height="70" as="geometry" />
        </mxCell>
        <mxCell id="GBdT3qQerjElVw0EhxT5-39" value="Extends" style="endArrow=open;endSize=12;dashed=1;html=1;rounded=0;exitX=0.957;exitY=0.286;exitDx=0;exitDy=0;entryX=0;entryY=0.5;entryDx=0;entryDy=0;exitPerimeter=0;" parent="1" source="GBdT3qQerjElVw0EhxT5-3" target="GBdT3qQerjElVw0EhxT5-38" edge="1">
          <mxGeometry width="160" relative="1" as="geometry">
            <mxPoint x="510" y="135" as="sourcePoint" />
            <mxPoint x="660" y="135" as="targetPoint" />
          </mxGeometry>
        </mxCell>
        <mxCell id="GBdT3qQerjElVw0EhxT5-40" value="Login Alternativo&lt;br&gt;(Facebook, Google, Apple)" style="ellipse;whiteSpace=wrap;html=1;" parent="1" vertex="1">
          <mxGeometry x="60" width="160" height="70" as="geometry" />
        </mxCell>
        <mxCell id="GBdT3qQerjElVw0EhxT5-41" value="Extends" style="endArrow=open;endSize=12;dashed=1;html=1;rounded=0;exitX=0.021;exitY=0.314;exitDx=0;exitDy=0;entryX=1;entryY=0.5;entryDx=0;entryDy=0;exitPerimeter=0;" parent="1" source="GBdT3qQerjElVw0EhxT5-3" target="GBdT3qQerjElVw0EhxT5-40" edge="1">
          <mxGeometry width="160" relative="1" as="geometry">
            <mxPoint x="504" y="120" as="sourcePoint" />
            <mxPoint x="680" y="15" as="targetPoint" />
          </mxGeometry>
        </mxCell>
        <mxCell id="GBdT3qQerjElVw0EhxT5-42" value="Visualizar Password" style="ellipse;whiteSpace=wrap;html=1;" parent="1" vertex="1">
          <mxGeometry x="450" y="-180" width="140" height="70" as="geometry" />
        </mxCell>
        <mxCell id="GBdT3qQerjElVw0EhxT5-43" value="Extends" style="endArrow=open;endSize=12;dashed=1;html=1;rounded=0;exitX=0.5;exitY=0;exitDx=0;exitDy=0;entryX=0.5;entryY=1;entryDx=0;entryDy=0;" parent="1" source="GBdT3qQerjElVw0EhxT5-31" target="GBdT3qQerjElVw0EhxT5-42" edge="1">
          <mxGeometry width="160" relative="1" as="geometry">
            <mxPoint x="504" y="120" as="sourcePoint" />
            <mxPoint x="680" y="15" as="targetPoint" />
          </mxGeometry>
        </mxCell>
        <mxCell id="GBdT3qQerjElVw0EhxT5-44" value="Visualizar Password" style="ellipse;whiteSpace=wrap;html=1;" parent="1" vertex="1">
          <mxGeometry x="570" y="580" width="140" height="70" as="geometry" />
        </mxCell>
        <mxCell id="GBdT3qQerjElVw0EhxT5-45" value="Extends" style="endArrow=open;endSize=12;dashed=1;html=1;rounded=0;exitX=0.5;exitY=1;exitDx=0;exitDy=0;entryX=0.5;entryY=0;entryDx=0;entryDy=0;" parent="1" source="GBdT3qQerjElVw0EhxT5-19" target="GBdT3qQerjElVw0EhxT5-44" edge="1">
          <mxGeometry width="160" relative="1" as="geometry">
            <mxPoint x="489" y="345" as="sourcePoint" />
            <mxPoint x="557" y="276" as="targetPoint" />
          </mxGeometry>
        </mxCell>
      </root>
    </mxGraphModel>
  </diagram>
  <diagram id="5j8JoBXzC1xXlkfn7m9U" name="Página-2">
    <mxGraphModel dx="1631" dy="2093" grid="1" gridSize="10" guides="1" tooltips="1" connect="1" arrows="1" fold="1" page="1" pageScale="1" pageWidth="827" pageHeight="1169" math="0" shadow="0">
      <root>
        <mxCell id="0" />
        <mxCell id="1" parent="0" />
        <mxCell id="p3qJmYm9Ef-Rv4ZONTGy-1" value="Actor" style="shape=umlActor;verticalLabelPosition=bottom;verticalAlign=top;html=1;outlineConnect=0;" vertex="1" parent="1">
          <mxGeometry x="90" y="130" width="40" height="80" as="geometry" />
        </mxCell>
        <mxCell id="p3qJmYm9Ef-Rv4ZONTGy-2" value="Login" style="ellipse;whiteSpace=wrap;html=1;" vertex="1" parent="1">
          <mxGeometry x="360" y="-110" width="140" height="70" as="geometry" />
        </mxCell>
        <mxCell id="p3qJmYm9Ef-Rv4ZONTGy-3" value="Registo" style="ellipse;whiteSpace=wrap;html=1;" vertex="1" parent="1">
          <mxGeometry x="360" y="325" width="140" height="70" as="geometry" />
        </mxCell>
        <mxCell id="p3qJmYm9Ef-Rv4ZONTGy-4" value="Includes" style="endArrow=open;endSize=12;dashed=1;html=1;rounded=0;edgeStyle=orthogonalEdgeStyle;exitX=0.5;exitY=1;exitDx=0;exitDy=0;entryX=0.5;entryY=0;entryDx=0;entryDy=0;" edge="1" parent="1" source="p3qJmYm9Ef-Rv4ZONTGy-2" target="p3qJmYm9Ef-Rv4ZONTGy-3">
          <mxGeometry width="160" relative="1" as="geometry">
            <mxPoint x="230" y="550" as="sourcePoint" />
            <mxPoint x="390" y="550" as="targetPoint" />
          </mxGeometry>
        </mxCell>
        <mxCell id="p3qJmYm9Ef-Rv4ZONTGy-5" value="" style="endArrow=none;html=1;rounded=0;entryX=0;entryY=0.5;entryDx=0;entryDy=0;" edge="1" parent="1" target="p3qJmYm9Ef-Rv4ZONTGy-2">
          <mxGeometry relative="1" as="geometry">
            <mxPoint x="150" y="170" as="sourcePoint" />
            <mxPoint x="490" y="300" as="targetPoint" />
          </mxGeometry>
        </mxCell>
        <mxCell id="p3qJmYm9Ef-Rv4ZONTGy-6" value="" style="endArrow=none;html=1;rounded=0;entryX=0;entryY=0.5;entryDx=0;entryDy=0;" edge="1" parent="1" target="p3qJmYm9Ef-Rv4ZONTGy-3">
          <mxGeometry relative="1" as="geometry">
            <mxPoint x="150" y="170" as="sourcePoint" />
            <mxPoint x="370" y="135" as="targetPoint" />
          </mxGeometry>
        </mxCell>
        <mxCell id="p3qJmYm9Ef-Rv4ZONTGy-7" value="Definir Email" style="ellipse;whiteSpace=wrap;html=1;" vertex="1" parent="1">
          <mxGeometry x="240" y="440" width="140" height="70" as="geometry" />
        </mxCell>
        <mxCell id="p3qJmYm9Ef-Rv4ZONTGy-8" value="Definir Password" style="ellipse;whiteSpace=wrap;html=1;" vertex="1" parent="1">
          <mxGeometry x="570" y="440" width="140" height="70" as="geometry" />
        </mxCell>
        <mxCell id="p3qJmYm9Ef-Rv4ZONTGy-9" value="Confirmar Email" style="ellipse;whiteSpace=wrap;html=1;" vertex="1" parent="1">
          <mxGeometry x="400" y="440" width="140" height="70" as="geometry" />
        </mxCell>
        <mxCell id="p3qJmYm9Ef-Rv4ZONTGy-10" value="Includes" style="endArrow=open;endSize=12;dashed=1;html=1;rounded=0;exitX=0.157;exitY=0.957;exitDx=0;exitDy=0;entryX=0.5;entryY=0;entryDx=0;entryDy=0;exitPerimeter=0;" edge="1" parent="1" source="p3qJmYm9Ef-Rv4ZONTGy-3" target="p3qJmYm9Ef-Rv4ZONTGy-7">
          <mxGeometry width="160" relative="1" as="geometry">
            <mxPoint x="440" y="335" as="sourcePoint" />
            <mxPoint x="440" y="170" as="targetPoint" />
          </mxGeometry>
        </mxCell>
        <mxCell id="p3qJmYm9Ef-Rv4ZONTGy-11" value="Includes" style="endArrow=open;endSize=12;dashed=1;html=1;rounded=0;edgeStyle=orthogonalEdgeStyle;exitX=0.793;exitY=0.9;exitDx=0;exitDy=0;exitPerimeter=0;" edge="1" parent="1" source="p3qJmYm9Ef-Rv4ZONTGy-3" target="p3qJmYm9Ef-Rv4ZONTGy-9">
          <mxGeometry width="160" relative="1" as="geometry">
            <mxPoint x="440" y="405" as="sourcePoint" />
            <mxPoint x="300" y="450" as="targetPoint" />
          </mxGeometry>
        </mxCell>
        <mxCell id="p3qJmYm9Ef-Rv4ZONTGy-12" value="Includes" style="endArrow=open;endSize=12;dashed=1;html=1;rounded=0;exitX=1;exitY=0.5;exitDx=0;exitDy=0;" edge="1" parent="1" source="p3qJmYm9Ef-Rv4ZONTGy-3" target="p3qJmYm9Ef-Rv4ZONTGy-8">
          <mxGeometry width="160" relative="1" as="geometry">
            <mxPoint x="450" y="415" as="sourcePoint" />
            <mxPoint x="310" y="460" as="targetPoint" />
          </mxGeometry>
        </mxCell>
        <mxCell id="p3qJmYm9Ef-Rv4ZONTGy-13" value="Requisitos Password" style="ellipse;whiteSpace=wrap;html=1;" vertex="1" parent="1">
          <mxGeometry x="810" y="440" width="140" height="70" as="geometry" />
        </mxCell>
        <mxCell id="p3qJmYm9Ef-Rv4ZONTGy-14" value="Includes" style="endArrow=open;endSize=12;dashed=1;html=1;rounded=0;edgeStyle=orthogonalEdgeStyle;exitX=1;exitY=0.5;exitDx=0;exitDy=0;entryX=0;entryY=0.5;entryDx=0;entryDy=0;" edge="1" parent="1" source="p3qJmYm9Ef-Rv4ZONTGy-8" target="p3qJmYm9Ef-Rv4ZONTGy-13">
          <mxGeometry width="160" relative="1" as="geometry">
            <mxPoint x="510" y="370" as="sourcePoint" />
            <mxPoint x="650" y="450" as="targetPoint" />
          </mxGeometry>
        </mxCell>
        <mxCell id="p3qJmYm9Ef-Rv4ZONTGy-15" value="Registo Alternativo&lt;br&gt;(Facebook, Google, Apple)" style="ellipse;whiteSpace=wrap;html=1;" vertex="1" parent="1">
          <mxGeometry x="530" y="210" width="160" height="70" as="geometry" />
        </mxCell>
        <mxCell id="p3qJmYm9Ef-Rv4ZONTGy-16" value="Extends" style="endArrow=open;endSize=12;dashed=1;html=1;rounded=0;exitX=0.106;exitY=0.8;exitDx=0;exitDy=0;entryX=1;entryY=0;entryDx=0;entryDy=0;exitPerimeter=0;" edge="1" parent="1" source="p3qJmYm9Ef-Rv4ZONTGy-15" target="p3qJmYm9Ef-Rv4ZONTGy-3">
          <mxGeometry width="160" relative="1" as="geometry">
            <mxPoint x="650" y="450" as="sourcePoint" />
            <mxPoint x="510" y="370" as="targetPoint" />
          </mxGeometry>
        </mxCell>
        <mxCell id="p3qJmYm9Ef-Rv4ZONTGy-17" value="Aceitar Termos e Condições" style="ellipse;whiteSpace=wrap;html=1;" vertex="1" parent="1">
          <mxGeometry x="750" y="240" width="140" height="70" as="geometry" />
        </mxCell>
        <mxCell id="p3qJmYm9Ef-Rv4ZONTGy-19" value="Inserir Email" style="ellipse;whiteSpace=wrap;html=1;" vertex="1" parent="1">
          <mxGeometry x="210" y="-260" width="140" height="70" as="geometry" />
        </mxCell>
        <mxCell id="p3qJmYm9Ef-Rv4ZONTGy-20" value="Inserir Password" style="ellipse;whiteSpace=wrap;html=1;" vertex="1" parent="1">
          <mxGeometry x="450" y="-250" width="140" height="70" as="geometry" />
        </mxCell>
        <mxCell id="p3qJmYm9Ef-Rv4ZONTGy-21" value="Includes" style="endArrow=open;endSize=12;dashed=1;html=1;rounded=0;exitX=1;exitY=0;exitDx=0;exitDy=0;entryX=0.5;entryY=1;entryDx=0;entryDy=0;" edge="1" parent="1" source="p3qJmYm9Ef-Rv4ZONTGy-2" target="p3qJmYm9Ef-Rv4ZONTGy-20">
          <mxGeometry width="160" relative="1" as="geometry">
            <mxPoint x="519.98" y="-118" as="sourcePoint" />
            <mxPoint x="677.98" y="-120" as="targetPoint" />
          </mxGeometry>
        </mxCell>
        <mxCell id="p3qJmYm9Ef-Rv4ZONTGy-22" value="Recuperar Password" style="ellipse;whiteSpace=wrap;html=1;" vertex="1" parent="1">
          <mxGeometry x="650" y="-110" width="140" height="70" as="geometry" />
        </mxCell>
        <mxCell id="p3qJmYm9Ef-Rv4ZONTGy-23" value="Includes" style="endArrow=open;endSize=12;dashed=1;html=1;rounded=0;exitX=1;exitY=0.5;exitDx=0;exitDy=0;entryX=0;entryY=0.5;entryDx=0;entryDy=0;" edge="1" parent="1" source="p3qJmYm9Ef-Rv4ZONTGy-3" target="p3qJmYm9Ef-Rv4ZONTGy-17">
          <mxGeometry width="160" relative="1" as="geometry">
            <mxPoint x="510" y="370" as="sourcePoint" />
            <mxPoint x="614" y="455" as="targetPoint" />
          </mxGeometry>
        </mxCell>
        <mxCell id="p3qJmYm9Ef-Rv4ZONTGy-24" value="Extends" style="endArrow=open;endSize=12;dashed=1;html=1;rounded=0;exitX=0;exitY=0.5;exitDx=0;exitDy=0;entryX=1;entryY=0.5;entryDx=0;entryDy=0;" edge="1" parent="1" source="p3qJmYm9Ef-Rv4ZONTGy-22" target="p3qJmYm9Ef-Rv4ZONTGy-2">
          <mxGeometry width="160" relative="1" as="geometry">
            <mxPoint x="550" y="-170" as="sourcePoint" />
            <mxPoint x="489" y="-90" as="targetPoint" />
          </mxGeometry>
        </mxCell>
        <mxCell id="p3qJmYm9Ef-Rv4ZONTGy-25" value="Verificação reCAPTCHA" style="ellipse;whiteSpace=wrap;html=1;" vertex="1" parent="1">
          <mxGeometry x="750" y="325" width="140" height="70" as="geometry" />
        </mxCell>
        <mxCell id="p3qJmYm9Ef-Rv4ZONTGy-26" value="Includes" style="endArrow=open;endSize=12;dashed=1;html=1;rounded=0;entryX=0;entryY=0.5;entryDx=0;entryDy=0;" edge="1" parent="1" target="p3qJmYm9Ef-Rv4ZONTGy-25">
          <mxGeometry width="160" relative="1" as="geometry">
            <mxPoint x="500" y="360" as="sourcePoint" />
            <mxPoint x="760" y="285" as="targetPoint" />
          </mxGeometry>
        </mxCell>
        <mxCell id="p3qJmYm9Ef-Rv4ZONTGy-27" value="Manter Sessão Iniciada" style="ellipse;whiteSpace=wrap;html=1;" vertex="1" parent="1">
          <mxGeometry x="670" y="-230" width="140" height="70" as="geometry" />
        </mxCell>
        <mxCell id="p3qJmYm9Ef-Rv4ZONTGy-28" value="Extends" style="endArrow=open;endSize=12;dashed=1;html=1;rounded=0;exitX=0;exitY=0.5;exitDx=0;exitDy=0;entryX=0.957;entryY=0.286;entryDx=0;entryDy=0;entryPerimeter=0;" edge="1" parent="1" source="p3qJmYm9Ef-Rv4ZONTGy-27" target="p3qJmYm9Ef-Rv4ZONTGy-2">
          <mxGeometry width="160" relative="1" as="geometry">
            <mxPoint x="660" y="-65" as="sourcePoint" />
            <mxPoint x="510" y="-65" as="targetPoint" />
          </mxGeometry>
        </mxCell>
        <mxCell id="p3qJmYm9Ef-Rv4ZONTGy-29" value="Login Alternativo&lt;br&gt;(Facebook, Google, Apple)" style="ellipse;whiteSpace=wrap;html=1;" vertex="1" parent="1">
          <mxGeometry x="60" y="-200" width="160" height="70" as="geometry" />
        </mxCell>
        <mxCell id="p3qJmYm9Ef-Rv4ZONTGy-30" value="Extends" style="endArrow=open;endSize=12;dashed=1;html=1;rounded=0;exitX=1;exitY=0.5;exitDx=0;exitDy=0;entryX=0.021;entryY=0.314;entryDx=0;entryDy=0;entryPerimeter=0;" edge="1" parent="1" source="p3qJmYm9Ef-Rv4ZONTGy-29" target="p3qJmYm9Ef-Rv4ZONTGy-2">
          <mxGeometry width="160" relative="1" as="geometry">
            <mxPoint x="680" y="-185" as="sourcePoint" />
            <mxPoint x="504" y="-80" as="targetPoint" />
          </mxGeometry>
        </mxCell>
        <mxCell id="p3qJmYm9Ef-Rv4ZONTGy-31" value="Visualizar Password" style="ellipse;whiteSpace=wrap;html=1;" vertex="1" parent="1">
          <mxGeometry x="450" y="-380" width="140" height="70" as="geometry" />
        </mxCell>
        <mxCell id="p3qJmYm9Ef-Rv4ZONTGy-32" value="Extends" style="endArrow=open;endSize=12;dashed=1;html=1;rounded=0;exitX=0.5;exitY=1;exitDx=0;exitDy=0;entryX=0.5;entryY=0;entryDx=0;entryDy=0;" edge="1" parent="1" source="p3qJmYm9Ef-Rv4ZONTGy-31" target="p3qJmYm9Ef-Rv4ZONTGy-20">
          <mxGeometry width="160" relative="1" as="geometry">
            <mxPoint x="680" y="-185" as="sourcePoint" />
            <mxPoint x="504" y="-80" as="targetPoint" />
          </mxGeometry>
        </mxCell>
        <mxCell id="p3qJmYm9Ef-Rv4ZONTGy-33" value="Visualizar Password" style="ellipse;whiteSpace=wrap;html=1;" vertex="1" parent="1">
          <mxGeometry x="570" y="580" width="140" height="70" as="geometry" />
        </mxCell>
        <mxCell id="p3qJmYm9Ef-Rv4ZONTGy-34" value="Extends" style="endArrow=open;endSize=12;dashed=1;html=1;rounded=0;exitX=0.5;exitY=0;exitDx=0;exitDy=0;entryX=0.5;entryY=1;entryDx=0;entryDy=0;" edge="1" parent="1" source="p3qJmYm9Ef-Rv4ZONTGy-33" target="p3qJmYm9Ef-Rv4ZONTGy-8">
          <mxGeometry width="160" relative="1" as="geometry">
            <mxPoint x="557" y="276" as="sourcePoint" />
            <mxPoint x="489" y="345" as="targetPoint" />
          </mxGeometry>
        </mxCell>
        <mxCell id="S24m7QcUMVJdsvG2bhd3-1" value="erro Login" style="ellipse;whiteSpace=wrap;html=1;" vertex="1" parent="1">
          <mxGeometry x="520" width="140" height="70" as="geometry" />
        </mxCell>
        <mxCell id="S24m7QcUMVJdsvG2bhd3-2" value="Extends" style="endArrow=open;endSize=12;dashed=1;html=1;rounded=0;exitX=0.064;exitY=0.285;exitDx=0;exitDy=0;exitPerimeter=0;" edge="1" parent="1" source="S24m7QcUMVJdsvG2bhd3-1" target="p3qJmYm9Ef-Rv4ZONTGy-2">
          <mxGeometry width="160" relative="1" as="geometry">
            <mxPoint x="230" y="-155" as="sourcePoint" />
            <mxPoint x="373" y="-78" as="targetPoint" />
          </mxGeometry>
        </mxCell>
        <mxCell id="S24m7QcUMVJdsvG2bhd3-3" value="confirmar email" style="ellipse;whiteSpace=wrap;html=1;" vertex="1" parent="1">
          <mxGeometry x="273" y="30" width="140" height="70" as="geometry" />
        </mxCell>
        <mxCell id="S24m7QcUMVJdsvG2bhd3-4" value="" style="endArrow=none;html=1;rounded=0;entryX=0;entryY=0.5;entryDx=0;entryDy=0;" edge="1" parent="1" target="S24m7QcUMVJdsvG2bhd3-3">
          <mxGeometry relative="1" as="geometry">
            <mxPoint x="150" y="170" as="sourcePoint" />
            <mxPoint x="350" y="-115" as="targetPoint" />
          </mxGeometry>
        </mxCell>
        <mxCell id="S24m7QcUMVJdsvG2bhd3-5" value="Includes" style="endArrow=open;endSize=12;dashed=1;html=1;rounded=0;exitX=0.357;exitY=1;exitDx=0;exitDy=0;entryX=0.5;entryY=0;entryDx=0;entryDy=0;exitPerimeter=0;" edge="1" parent="1" source="p3qJmYm9Ef-Rv4ZONTGy-2" target="S24m7QcUMVJdsvG2bhd3-3">
          <mxGeometry width="160" relative="1" as="geometry">
            <mxPoint x="370" y="-10" as="sourcePoint" />
            <mxPoint x="410" y="-90" as="targetPoint" />
          </mxGeometry>
        </mxCell>
        <mxCell id="S24m7QcUMVJdsvG2bhd3-6" value="enviar email de confirmaçao" style="ellipse;whiteSpace=wrap;html=1;" vertex="1" parent="1">
          <mxGeometry x="240" y="160" width="140" height="70" as="geometry" />
        </mxCell>
        <mxCell id="S24m7QcUMVJdsvG2bhd3-7" value="Includes" style="endArrow=open;endSize=12;dashed=1;html=1;rounded=0;exitX=0;exitY=0;exitDx=0;exitDy=0;entryX=0.585;entryY=1.05;entryDx=0;entryDy=0;entryPerimeter=0;" edge="1" parent="1" target="S24m7QcUMVJdsvG2bhd3-6">
          <mxGeometry x="-0.2226" y="2" width="160" relative="1" as="geometry">
            <mxPoint x="390" y="330" as="sourcePoint" />
            <mxPoint x="370" y="290" as="targetPoint" />
            <mxPoint as="offset" />
          </mxGeometry>
        </mxCell>
        <mxCell id="S24m7QcUMVJdsvG2bhd3-8" value="Includes" style="endArrow=open;endSize=12;dashed=1;html=1;rounded=0;exitX=0.56;exitY=-0.026;exitDx=0;exitDy=0;exitPerimeter=0;" edge="1" parent="1" source="S24m7QcUMVJdsvG2bhd3-6" target="S24m7QcUMVJdsvG2bhd3-3">
          <mxGeometry width="160" relative="1" as="geometry">
            <mxPoint x="400" y="223" as="sourcePoint" />
            <mxPoint x="379" y="170" as="targetPoint" />
          </mxGeometry>
        </mxCell>
        <mxCell id="S24m7QcUMVJdsvG2bhd3-9" value="verificar password" style="ellipse;whiteSpace=wrap;html=1;" vertex="1" parent="1">
          <mxGeometry x="300" y="-340" width="140" height="70" as="geometry" />
        </mxCell>
        <mxCell id="S24m7QcUMVJdsvG2bhd3-10" value="Includes" style="endArrow=open;endSize=12;dashed=1;html=1;rounded=0;exitX=0.5;exitY=0;exitDx=0;exitDy=0;entryX=0.711;entryY=0.957;entryDx=0;entryDy=0;entryPerimeter=0;" edge="1" parent="1" source="p3qJmYm9Ef-Rv4ZONTGy-2">
          <mxGeometry width="160" relative="1" as="geometry">
            <mxPoint x="420.46" y="-106.99" as="sourcePoint" />
            <mxPoint x="389.99999999999994" y="-270.0000000000002" as="targetPoint" />
          </mxGeometry>
        </mxCell>
        <mxCell id="S24m7QcUMVJdsvG2bhd3-11" value="Includes" style="endArrow=open;endSize=12;dashed=1;html=1;rounded=0;exitX=0.274;exitY=0.075;exitDx=0;exitDy=0;entryX=0.926;entryY=0.856;entryDx=0;entryDy=0;entryPerimeter=0;exitPerimeter=0;" edge="1" parent="1" source="p3qJmYm9Ef-Rv4ZONTGy-2" target="p3qJmYm9Ef-Rv4ZONTGy-19">
          <mxGeometry width="160" relative="1" as="geometry">
            <mxPoint x="382.46" y="-96.99" as="sourcePoint" />
            <mxPoint x="352.46" y="-259.99" as="targetPoint" />
          </mxGeometry>
        </mxCell>
      </root>
    </mxGraphModel>
  </diagram>
</mxfile>
